<mxfile host="app.diagrams.net" modified="2021-04-20T18:16:50.904Z" agent="5.0 (Windows NT 10.0; Win64; x64) AppleWebKit/537.36 (KHTML, like Gecko) Chrome/89.0.4389.128 Safari/537.36 Edg/89.0.774.77" etag="DhrsJ_8c3Tuv0cpwZbwN" version="14.6.3" type="github">
  <diagram name="Page-1" id="e7010aeb-78dc-98c9-4316-6516fd28bfe3">
    <mxGraphModel dx="1038" dy="580" grid="1" gridSize="10" guides="1" tooltips="1" connect="1" arrows="1" fold="1" page="1" pageScale="1.5" pageWidth="1169" pageHeight="826" background="#ffffff" math="0" shadow="0">
      <root>
        <mxCell id="0" style=";html=1;" />
        <mxCell id="1" style=";html=1;" parent="0" />
        <mxCell id="0AfhaiGvRMVgeVekRw-L-74" value="" style="shape=table;html=1;whiteSpace=wrap;startSize=0;container=1;collapsible=0;childLayout=tableLayout;" vertex="1" parent="1">
          <mxGeometry x="730" y="70" width="320" height="80" as="geometry" />
        </mxCell>
        <mxCell id="0AfhaiGvRMVgeVekRw-L-75" value="" style="shape=partialRectangle;html=1;whiteSpace=wrap;collapsible=0;dropTarget=0;pointerEvents=0;fillColor=none;top=0;left=0;bottom=0;right=0;points=[[0,0.5],[1,0.5]];portConstraint=eastwest;" vertex="1" parent="0AfhaiGvRMVgeVekRw-L-74">
          <mxGeometry width="320" height="80" as="geometry" />
        </mxCell>
        <mxCell id="0AfhaiGvRMVgeVekRw-L-76" value="&lt;u&gt;name&lt;/u&gt;" style="shape=partialRectangle;html=1;whiteSpace=wrap;connectable=0;overflow=hidden;fillColor=none;top=0;left=0;bottom=0;right=0;" vertex="1" parent="0AfhaiGvRMVgeVekRw-L-75">
          <mxGeometry width="80" height="80" as="geometry" />
        </mxCell>
        <mxCell id="0AfhaiGvRMVgeVekRw-L-77" value="country" style="shape=partialRectangle;html=1;whiteSpace=wrap;connectable=0;overflow=hidden;fillColor=none;top=0;left=0;bottom=0;right=0;" vertex="1" parent="0AfhaiGvRMVgeVekRw-L-75">
          <mxGeometry x="80" width="80" height="80" as="geometry" />
        </mxCell>
        <mxCell id="0AfhaiGvRMVgeVekRw-L-78" value="creation_&lt;br&gt;date" style="shape=partialRectangle;html=1;whiteSpace=wrap;connectable=0;overflow=hidden;fillColor=none;top=0;left=0;bottom=0;right=0;" vertex="1" parent="0AfhaiGvRMVgeVekRw-L-75">
          <mxGeometry x="160" width="80" height="80" as="geometry" />
        </mxCell>
        <mxCell id="0AfhaiGvRMVgeVekRw-L-79" value="dissolution_&lt;br&gt;date" style="shape=partialRectangle;html=1;whiteSpace=wrap;connectable=0;overflow=hidden;fillColor=none;top=0;left=0;bottom=0;right=0;" vertex="1" parent="0AfhaiGvRMVgeVekRw-L-75">
          <mxGeometry x="240" width="80" height="80" as="geometry" />
        </mxCell>
        <mxCell id="0AfhaiGvRMVgeVekRw-L-80" value="Band" style="text;strokeColor=none;fillColor=none;html=1;fontSize=24;fontStyle=1;verticalAlign=middle;align=center;" vertex="1" parent="1">
          <mxGeometry x="730" y="30" width="100" height="40" as="geometry" />
        </mxCell>
        <mxCell id="0AfhaiGvRMVgeVekRw-L-81" value="" style="shape=table;html=1;whiteSpace=wrap;startSize=0;container=1;collapsible=0;childLayout=tableLayout;" vertex="1" parent="1">
          <mxGeometry x="730" y="290" width="410" height="60" as="geometry" />
        </mxCell>
        <mxCell id="0AfhaiGvRMVgeVekRw-L-82" value="" style="shape=partialRectangle;html=1;whiteSpace=wrap;collapsible=0;dropTarget=0;pointerEvents=0;fillColor=none;top=0;left=0;bottom=0;right=0;points=[[0,0.5],[1,0.5]];portConstraint=eastwest;" vertex="1" parent="0AfhaiGvRMVgeVekRw-L-81">
          <mxGeometry width="410" height="60" as="geometry" />
        </mxCell>
        <mxCell id="0AfhaiGvRMVgeVekRw-L-83" value="&lt;u&gt;Fname&lt;/u&gt;" style="shape=partialRectangle;html=1;whiteSpace=wrap;connectable=0;overflow=hidden;fillColor=none;top=0;left=0;bottom=0;right=0;" vertex="1" parent="0AfhaiGvRMVgeVekRw-L-82">
          <mxGeometry width="82" height="60" as="geometry" />
        </mxCell>
        <mxCell id="0AfhaiGvRMVgeVekRw-L-84" value="&lt;u&gt;Lname&lt;/u&gt;" style="shape=partialRectangle;html=1;whiteSpace=wrap;connectable=0;overflow=hidden;fillColor=none;top=0;left=0;bottom=0;right=0;" vertex="1" parent="0AfhaiGvRMVgeVekRw-L-82">
          <mxGeometry x="82" width="82" height="60" as="geometry" />
        </mxCell>
        <mxCell id="0AfhaiGvRMVgeVekRw-L-85" value="Birth_date" style="shape=partialRectangle;html=1;whiteSpace=wrap;connectable=0;overflow=hidden;fillColor=none;top=0;left=0;bottom=0;right=0;" vertex="1" parent="0AfhaiGvRMVgeVekRw-L-82">
          <mxGeometry x="164" width="82" height="60" as="geometry" />
        </mxCell>
        <mxCell id="0AfhaiGvRMVgeVekRw-L-86" value="sex" style="shape=partialRectangle;html=1;whiteSpace=wrap;connectable=0;overflow=hidden;fillColor=none;top=0;left=0;bottom=0;right=0;" vertex="1" parent="0AfhaiGvRMVgeVekRw-L-82">
          <mxGeometry x="246" width="82" height="60" as="geometry" />
        </mxCell>
        <mxCell id="0AfhaiGvRMVgeVekRw-L-87" value="nationality" style="shape=partialRectangle;html=1;whiteSpace=wrap;connectable=0;overflow=hidden;fillColor=none;top=0;left=0;bottom=0;right=0;" vertex="1" parent="0AfhaiGvRMVgeVekRw-L-82">
          <mxGeometry x="328" width="82" height="60" as="geometry" />
        </mxCell>
        <mxCell id="0AfhaiGvRMVgeVekRw-L-89" value="Artist" style="text;strokeColor=none;fillColor=none;html=1;fontSize=24;fontStyle=1;verticalAlign=middle;align=center;" vertex="1" parent="1">
          <mxGeometry x="730" y="230" width="100" height="40" as="geometry" />
        </mxCell>
        <mxCell id="0AfhaiGvRMVgeVekRw-L-97" value="" style="shape=table;html=1;whiteSpace=wrap;startSize=0;container=1;collapsible=0;childLayout=tableLayout;" vertex="1" parent="1">
          <mxGeometry x="730" y="480" width="470" height="80" as="geometry" />
        </mxCell>
        <mxCell id="0AfhaiGvRMVgeVekRw-L-98" value="" style="shape=partialRectangle;html=1;whiteSpace=wrap;collapsible=0;dropTarget=0;pointerEvents=0;fillColor=none;top=0;left=0;bottom=0;right=0;points=[[0,0.5],[1,0.5]];portConstraint=eastwest;" vertex="1" parent="0AfhaiGvRMVgeVekRw-L-97">
          <mxGeometry width="470" height="80" as="geometry" />
        </mxCell>
        <mxCell id="0AfhaiGvRMVgeVekRw-L-99" value="&lt;u&gt;Bname&lt;/u&gt;" style="shape=partialRectangle;html=1;whiteSpace=wrap;connectable=0;overflow=hidden;fillColor=none;top=0;left=0;bottom=0;right=0;" vertex="1" parent="0AfhaiGvRMVgeVekRw-L-98">
          <mxGeometry width="94" height="80" as="geometry" />
        </mxCell>
        <mxCell id="0AfhaiGvRMVgeVekRw-L-100" value="&lt;u&gt;AFname&lt;/u&gt;" style="shape=partialRectangle;html=1;whiteSpace=wrap;connectable=0;overflow=hidden;fillColor=none;top=0;left=0;bottom=0;right=0;" vertex="1" parent="0AfhaiGvRMVgeVekRw-L-98">
          <mxGeometry x="94" width="94" height="80" as="geometry" />
        </mxCell>
        <mxCell id="0AfhaiGvRMVgeVekRw-L-101" value="&lt;u&gt;ALname&lt;/u&gt;" style="shape=partialRectangle;html=1;whiteSpace=wrap;connectable=0;overflow=hidden;fillColor=none;top=0;left=0;bottom=0;right=0;" vertex="1" parent="0AfhaiGvRMVgeVekRw-L-98">
          <mxGeometry x="188" width="94" height="80" as="geometry" />
        </mxCell>
        <mxCell id="0AfhaiGvRMVgeVekRw-L-102" value="start_date" style="shape=partialRectangle;html=1;whiteSpace=wrap;connectable=0;overflow=hidden;fillColor=none;top=0;left=0;bottom=0;right=0;" vertex="1" parent="0AfhaiGvRMVgeVekRw-L-98">
          <mxGeometry x="282" width="94" height="80" as="geometry" />
        </mxCell>
        <mxCell id="0AfhaiGvRMVgeVekRw-L-103" value="finish_date" style="shape=partialRectangle;html=1;whiteSpace=wrap;connectable=0;overflow=hidden;fillColor=none;top=0;left=0;bottom=0;right=0;" vertex="1" parent="0AfhaiGvRMVgeVekRw-L-98">
          <mxGeometry x="376" width="94" height="80" as="geometry" />
        </mxCell>
        <mxCell id="0AfhaiGvRMVgeVekRw-L-104" value="PLAYING ROLE" style="text;strokeColor=none;fillColor=none;html=1;fontSize=24;fontStyle=1;verticalAlign=middle;align=center;" vertex="1" parent="1">
          <mxGeometry x="730" y="390" width="170" height="40" as="geometry" />
        </mxCell>
        <mxCell id="0AfhaiGvRMVgeVekRw-L-106" style="edgeStyle=orthogonalEdgeStyle;rounded=0;orthogonalLoop=1;jettySize=auto;html=1;exitX=0;exitY=0.5;exitDx=0;exitDy=0;entryX=0;entryY=0.5;entryDx=0;entryDy=0;" edge="1" parent="1" source="0AfhaiGvRMVgeVekRw-L-98" target="0AfhaiGvRMVgeVekRw-L-75">
          <mxGeometry relative="1" as="geometry" />
        </mxCell>
        <mxCell id="0AfhaiGvRMVgeVekRw-L-110" value="" style="edgeStyle=segmentEdgeStyle;endArrow=classic;html=1;exitX=0.322;exitY=-0.017;exitDx=0;exitDy=0;exitPerimeter=0;entryX=0.094;entryY=1.057;entryDx=0;entryDy=0;entryPerimeter=0;" edge="1" parent="1" source="0AfhaiGvRMVgeVekRw-L-98" target="0AfhaiGvRMVgeVekRw-L-82">
          <mxGeometry width="50" height="50" relative="1" as="geometry">
            <mxPoint x="882" y="429" as="sourcePoint" />
            <mxPoint x="760" y="370" as="targetPoint" />
            <Array as="points">
              <mxPoint x="881" y="420" />
              <mxPoint x="920" y="420" />
              <mxPoint x="920" y="370" />
              <mxPoint x="769" y="370" />
            </Array>
          </mxGeometry>
        </mxCell>
        <mxCell id="0AfhaiGvRMVgeVekRw-L-112" value="" style="edgeStyle=segmentEdgeStyle;endArrow=classic;html=1;exitX=0.451;exitY=0;exitDx=0;exitDy=0;exitPerimeter=0;" edge="1" parent="1" source="0AfhaiGvRMVgeVekRw-L-98" target="0AfhaiGvRMVgeVekRw-L-82">
          <mxGeometry width="50" height="50" relative="1" as="geometry">
            <mxPoint x="942" y="447" as="sourcePoint" />
            <mxPoint x="860" y="350" as="targetPoint" />
            <Array as="points">
              <mxPoint x="942" y="360" />
              <mxPoint x="860" y="360" />
            </Array>
          </mxGeometry>
        </mxCell>
        <mxCell id="0AfhaiGvRMVgeVekRw-L-113" value="" style="shape=table;html=1;whiteSpace=wrap;startSize=0;container=1;collapsible=0;childLayout=tableLayout;" vertex="1" parent="1">
          <mxGeometry x="730" y="630" width="360" height="70" as="geometry" />
        </mxCell>
        <mxCell id="0AfhaiGvRMVgeVekRw-L-114" value="" style="shape=partialRectangle;html=1;whiteSpace=wrap;collapsible=0;dropTarget=0;pointerEvents=0;fillColor=none;top=0;left=0;bottom=0;right=0;points=[[0,0.5],[1,0.5]];portConstraint=eastwest;" vertex="1" parent="0AfhaiGvRMVgeVekRw-L-113">
          <mxGeometry width="360" height="70" as="geometry" />
        </mxCell>
        <mxCell id="0AfhaiGvRMVgeVekRw-L-115" value="&lt;u&gt;Bname&lt;/u&gt;" style="shape=partialRectangle;html=1;whiteSpace=wrap;connectable=0;overflow=hidden;fillColor=none;top=0;left=0;bottom=0;right=0;" vertex="1" parent="0AfhaiGvRMVgeVekRw-L-114">
          <mxGeometry width="91" height="70" as="geometry" />
        </mxCell>
        <mxCell id="0AfhaiGvRMVgeVekRw-L-116" value="&lt;u&gt;Album_name&lt;/u&gt;" style="shape=partialRectangle;html=1;whiteSpace=wrap;connectable=0;overflow=hidden;fillColor=none;top=0;left=0;bottom=0;right=0;" vertex="1" parent="0AfhaiGvRMVgeVekRw-L-114">
          <mxGeometry x="91" width="89" height="70" as="geometry" />
        </mxCell>
        <mxCell id="0AfhaiGvRMVgeVekRw-L-117" value="release_date" style="shape=partialRectangle;html=1;whiteSpace=wrap;connectable=0;overflow=hidden;fillColor=none;top=0;left=0;bottom=0;right=0;" vertex="1" parent="0AfhaiGvRMVgeVekRw-L-114">
          <mxGeometry x="180" width="91" height="70" as="geometry" />
        </mxCell>
        <mxCell id="0AfhaiGvRMVgeVekRw-L-118" value="cover_picture" style="shape=partialRectangle;html=1;whiteSpace=wrap;connectable=0;overflow=hidden;fillColor=none;top=0;left=0;bottom=0;right=0;" vertex="1" parent="0AfhaiGvRMVgeVekRw-L-114">
          <mxGeometry x="271" width="89" height="70" as="geometry" />
        </mxCell>
        <mxCell id="0AfhaiGvRMVgeVekRw-L-119" value="Album" style="text;strokeColor=none;fillColor=none;html=1;fontSize=24;fontStyle=1;verticalAlign=middle;align=center;" vertex="1" parent="1">
          <mxGeometry x="730" y="580" width="100" height="40" as="geometry" />
        </mxCell>
        <mxCell id="0AfhaiGvRMVgeVekRw-L-125" style="edgeStyle=orthogonalEdgeStyle;rounded=0;orthogonalLoop=1;jettySize=auto;html=1;entryX=-0.005;entryY=0.153;entryDx=0;entryDy=0;entryPerimeter=0;" edge="1" parent="1" source="0AfhaiGvRMVgeVekRw-L-114" target="0AfhaiGvRMVgeVekRw-L-75">
          <mxGeometry relative="1" as="geometry">
            <mxPoint x="670" y="80" as="targetPoint" />
            <Array as="points">
              <mxPoint x="660" y="665" />
              <mxPoint x="660" y="80" />
              <mxPoint x="710" y="80" />
              <mxPoint x="710" y="82" />
            </Array>
          </mxGeometry>
        </mxCell>
        <mxCell id="0AfhaiGvRMVgeVekRw-L-130" style="edgeStyle=orthogonalEdgeStyle;rounded=0;orthogonalLoop=1;jettySize=auto;html=1;entryX=0.389;entryY=0.986;entryDx=0;entryDy=0;entryPerimeter=0;" edge="1" parent="1" source="0AfhaiGvRMVgeVekRw-L-126" target="0AfhaiGvRMVgeVekRw-L-114">
          <mxGeometry relative="1" as="geometry">
            <mxPoint x="870" y="720" as="targetPoint" />
            <Array as="points">
              <mxPoint x="950" y="790" />
              <mxPoint x="950" y="730" />
              <mxPoint x="870" y="730" />
            </Array>
          </mxGeometry>
        </mxCell>
        <mxCell id="0AfhaiGvRMVgeVekRw-L-126" value="" style="shape=table;html=1;whiteSpace=wrap;startSize=0;container=1;collapsible=0;childLayout=tableLayout;" vertex="1" parent="1">
          <mxGeometry x="720" y="760" width="200" height="60" as="geometry" />
        </mxCell>
        <mxCell id="0AfhaiGvRMVgeVekRw-L-127" value="" style="shape=partialRectangle;html=1;whiteSpace=wrap;collapsible=0;dropTarget=0;pointerEvents=0;fillColor=none;top=0;left=0;bottom=0;right=0;points=[[0,0.5],[1,0.5]];portConstraint=eastwest;" vertex="1" parent="0AfhaiGvRMVgeVekRw-L-126">
          <mxGeometry width="200" height="60" as="geometry" />
        </mxCell>
        <mxCell id="0AfhaiGvRMVgeVekRw-L-128" value="&lt;u&gt;Bname&lt;/u&gt;" style="shape=partialRectangle;html=1;whiteSpace=wrap;connectable=0;overflow=hidden;fillColor=none;top=0;left=0;bottom=0;right=0;" vertex="1" parent="0AfhaiGvRMVgeVekRw-L-127">
          <mxGeometry width="100" height="60" as="geometry" />
        </mxCell>
        <mxCell id="0AfhaiGvRMVgeVekRw-L-129" value="&lt;u&gt;Aname&lt;/u&gt;" style="shape=partialRectangle;html=1;whiteSpace=wrap;connectable=0;overflow=hidden;fillColor=none;top=0;left=0;bottom=0;right=0;" vertex="1" parent="0AfhaiGvRMVgeVekRw-L-127">
          <mxGeometry x="100" width="100" height="60" as="geometry" />
        </mxCell>
        <mxCell id="0AfhaiGvRMVgeVekRw-L-132" style="edgeStyle=orthogonalEdgeStyle;rounded=0;orthogonalLoop=1;jettySize=auto;html=1;entryX=-0.013;entryY=0.333;entryDx=0;entryDy=0;entryPerimeter=0;" edge="1" parent="1" source="0AfhaiGvRMVgeVekRw-L-127" target="0AfhaiGvRMVgeVekRw-L-75">
          <mxGeometry relative="1" as="geometry">
            <mxPoint x="630" y="100" as="targetPoint" />
            <Array as="points">
              <mxPoint x="610" y="790" />
              <mxPoint x="610" y="97" />
            </Array>
          </mxGeometry>
        </mxCell>
        <mxCell id="0AfhaiGvRMVgeVekRw-L-133" value="HAS" style="text;strokeColor=none;fillColor=none;html=1;fontSize=24;fontStyle=1;verticalAlign=middle;align=center;" vertex="1" parent="1">
          <mxGeometry x="720" y="720" width="100" height="40" as="geometry" />
        </mxCell>
        <mxCell id="0AfhaiGvRMVgeVekRw-L-134" value="" style="shape=table;html=1;whiteSpace=wrap;startSize=0;container=1;collapsible=0;childLayout=tableLayout;" vertex="1" parent="1">
          <mxGeometry x="720" y="880" width="100" height="60" as="geometry" />
        </mxCell>
        <mxCell id="0AfhaiGvRMVgeVekRw-L-135" value="" style="shape=partialRectangle;html=1;whiteSpace=wrap;collapsible=0;dropTarget=0;pointerEvents=0;fillColor=none;top=0;left=0;bottom=0;right=0;points=[[0,0.5],[1,0.5]];portConstraint=eastwest;" vertex="1" parent="0AfhaiGvRMVgeVekRw-L-134">
          <mxGeometry width="100" height="60" as="geometry" />
        </mxCell>
        <mxCell id="0AfhaiGvRMVgeVekRw-L-136" value="dissolution_date" style="shape=partialRectangle;html=1;whiteSpace=wrap;connectable=0;overflow=hidden;fillColor=none;top=0;left=0;bottom=0;right=0;" vertex="1" parent="0AfhaiGvRMVgeVekRw-L-135">
          <mxGeometry width="100" height="60" as="geometry" />
        </mxCell>
        <mxCell id="0AfhaiGvRMVgeVekRw-L-137" value="Present_status" style="text;strokeColor=none;fillColor=none;html=1;fontSize=24;fontStyle=1;verticalAlign=middle;align=center;" vertex="1" parent="1">
          <mxGeometry x="720" y="840" width="160" height="40" as="geometry" />
        </mxCell>
        <mxCell id="0AfhaiGvRMVgeVekRw-L-138" value="" style="shape=table;html=1;whiteSpace=wrap;startSize=0;container=1;collapsible=0;childLayout=tableLayout;" vertex="1" parent="1">
          <mxGeometry x="720" y="1000" width="450" height="80" as="geometry" />
        </mxCell>
        <mxCell id="0AfhaiGvRMVgeVekRw-L-139" value="" style="shape=partialRectangle;html=1;whiteSpace=wrap;collapsible=0;dropTarget=0;pointerEvents=0;fillColor=none;top=0;left=0;bottom=0;right=0;points=[[0,0.5],[1,0.5]];portConstraint=eastwest;" vertex="1" parent="0AfhaiGvRMVgeVekRw-L-138">
          <mxGeometry width="450" height="80" as="geometry" />
        </mxCell>
        <mxCell id="0AfhaiGvRMVgeVekRw-L-140" value="&lt;u&gt;name&lt;/u&gt;" style="shape=partialRectangle;html=1;whiteSpace=wrap;connectable=0;overflow=hidden;fillColor=none;top=0;left=0;bottom=0;right=0;" vertex="1" parent="0AfhaiGvRMVgeVekRw-L-139">
          <mxGeometry width="90" height="80" as="geometry" />
        </mxCell>
        <mxCell id="0AfhaiGvRMVgeVekRw-L-141" value="duration" style="shape=partialRectangle;html=1;whiteSpace=wrap;connectable=0;overflow=hidden;fillColor=none;top=0;left=0;bottom=0;right=0;" vertex="1" parent="0AfhaiGvRMVgeVekRw-L-139">
          <mxGeometry x="90" width="90" height="80" as="geometry" />
        </mxCell>
        <mxCell id="0AfhaiGvRMVgeVekRw-L-142" value="genre" style="shape=partialRectangle;html=1;whiteSpace=wrap;connectable=0;overflow=hidden;fillColor=none;top=0;left=0;bottom=0;right=0;" vertex="1" parent="0AfhaiGvRMVgeVekRw-L-139">
          <mxGeometry x="180" width="90" height="80" as="geometry" />
        </mxCell>
        <mxCell id="0AfhaiGvRMVgeVekRw-L-143" value="Album_name" style="shape=partialRectangle;html=1;whiteSpace=wrap;connectable=0;overflow=hidden;fillColor=none;top=0;left=0;bottom=0;right=0;" vertex="1" parent="0AfhaiGvRMVgeVekRw-L-139">
          <mxGeometry x="270" width="90" height="80" as="geometry" />
        </mxCell>
        <mxCell id="0AfhaiGvRMVgeVekRw-L-144" value="remastering_&lt;br&gt;song" style="shape=partialRectangle;html=1;whiteSpace=wrap;connectable=0;overflow=hidden;fillColor=none;top=0;left=0;bottom=0;right=0;" vertex="1" parent="0AfhaiGvRMVgeVekRw-L-139">
          <mxGeometry x="360" width="90" height="80" as="geometry" />
        </mxCell>
        <mxCell id="0AfhaiGvRMVgeVekRw-L-150" style="edgeStyle=orthogonalEdgeStyle;rounded=0;orthogonalLoop=1;jettySize=auto;html=1;entryX=0.088;entryY=1.028;entryDx=0;entryDy=0;entryPerimeter=0;" edge="1" parent="0AfhaiGvRMVgeVekRw-L-138" source="0AfhaiGvRMVgeVekRw-L-139" target="0AfhaiGvRMVgeVekRw-L-139">
          <mxGeometry relative="1" as="geometry">
            <mxPoint x="40" y="130" as="targetPoint" />
            <Array as="points">
              <mxPoint x="470" y="40" />
              <mxPoint x="470" y="170" />
              <mxPoint x="40" y="170" />
            </Array>
          </mxGeometry>
        </mxCell>
        <mxCell id="0AfhaiGvRMVgeVekRw-L-145" value="Song" style="text;strokeColor=none;fillColor=none;html=1;fontSize=24;fontStyle=1;verticalAlign=middle;align=center;" vertex="1" parent="1">
          <mxGeometry x="720" y="960" width="100" height="40" as="geometry" />
        </mxCell>
        <mxCell id="0AfhaiGvRMVgeVekRw-L-152" style="edgeStyle=orthogonalEdgeStyle;rounded=0;orthogonalLoop=1;jettySize=auto;html=1;" edge="1" parent="1" source="0AfhaiGvRMVgeVekRw-L-151">
          <mxGeometry relative="1" as="geometry">
            <mxPoint x="894" y="700" as="targetPoint" />
            <Array as="points">
              <mxPoint x="1020" y="920" />
              <mxPoint x="1020" y="720" />
              <mxPoint x="894" y="720" />
            </Array>
          </mxGeometry>
        </mxCell>
        <mxCell id="0AfhaiGvRMVgeVekRw-L-151" value="" style="shape=waypoint;sketch=0;size=6;pointerEvents=1;points=[];fillColor=none;resizable=0;rotatable=0;perimeter=centerPerimeter;snapToPoint=1;" vertex="1" parent="1">
          <mxGeometry x="1040" y="980" width="40" height="40" as="geometry" />
        </mxCell>
        <mxCell id="0AfhaiGvRMVgeVekRw-L-153" value="" style="shape=table;html=1;whiteSpace=wrap;startSize=0;container=1;collapsible=0;childLayout=tableLayout;" vertex="1" parent="1">
          <mxGeometry x="710" y="1250" width="480" height="100" as="geometry" />
        </mxCell>
        <mxCell id="0AfhaiGvRMVgeVekRw-L-154" value="" style="shape=partialRectangle;html=1;whiteSpace=wrap;collapsible=0;dropTarget=0;pointerEvents=0;fillColor=none;top=0;left=0;bottom=0;right=0;points=[[0,0.5],[1,0.5]];portConstraint=eastwest;" vertex="1" parent="0AfhaiGvRMVgeVekRw-L-153">
          <mxGeometry width="480" height="100" as="geometry" />
        </mxCell>
        <mxCell id="0AfhaiGvRMVgeVekRw-L-155" value="Fname" style="shape=partialRectangle;html=1;whiteSpace=wrap;connectable=0;overflow=hidden;fillColor=none;top=0;left=0;bottom=0;right=0;" vertex="1" parent="0AfhaiGvRMVgeVekRw-L-154">
          <mxGeometry width="96" height="100" as="geometry" />
        </mxCell>
        <mxCell id="0AfhaiGvRMVgeVekRw-L-156" value="Lname" style="shape=partialRectangle;html=1;whiteSpace=wrap;connectable=0;overflow=hidden;fillColor=none;top=0;left=0;bottom=0;right=0;" vertex="1" parent="0AfhaiGvRMVgeVekRw-L-154">
          <mxGeometry x="96" width="96" height="100" as="geometry" />
        </mxCell>
        <mxCell id="0AfhaiGvRMVgeVekRw-L-157" value="&lt;u&gt;user_name&lt;/u&gt;" style="shape=partialRectangle;html=1;whiteSpace=wrap;connectable=0;overflow=hidden;fillColor=none;top=0;left=0;bottom=0;right=0;" vertex="1" parent="0AfhaiGvRMVgeVekRw-L-154">
          <mxGeometry x="192" width="96" height="100" as="geometry" />
        </mxCell>
        <mxCell id="0AfhaiGvRMVgeVekRw-L-158" value="email" style="shape=partialRectangle;html=1;whiteSpace=wrap;connectable=0;overflow=hidden;fillColor=none;top=0;left=0;bottom=0;right=0;" vertex="1" parent="0AfhaiGvRMVgeVekRw-L-154">
          <mxGeometry x="288" width="96" height="100" as="geometry" />
        </mxCell>
        <mxCell id="0AfhaiGvRMVgeVekRw-L-159" value="Pnumber" style="shape=partialRectangle;html=1;whiteSpace=wrap;connectable=0;overflow=hidden;fillColor=none;top=0;left=0;bottom=0;right=0;" vertex="1" parent="0AfhaiGvRMVgeVekRw-L-154">
          <mxGeometry x="384" width="96" height="100" as="geometry" />
        </mxCell>
        <mxCell id="0AfhaiGvRMVgeVekRw-L-160" value="User" style="text;strokeColor=none;fillColor=none;html=1;fontSize=24;fontStyle=1;verticalAlign=middle;align=center;" vertex="1" parent="1">
          <mxGeometry x="710" y="1199" width="100" height="40" as="geometry" />
        </mxCell>
        <mxCell id="0AfhaiGvRMVgeVekRw-L-161" value="" style="shape=table;html=1;whiteSpace=wrap;startSize=0;container=1;collapsible=0;childLayout=tableLayout;" vertex="1" parent="1">
          <mxGeometry x="710" y="1490" width="280" height="80" as="geometry" />
        </mxCell>
        <mxCell id="0AfhaiGvRMVgeVekRw-L-162" value="" style="shape=partialRectangle;html=1;whiteSpace=wrap;collapsible=0;dropTarget=0;pointerEvents=0;fillColor=none;top=0;left=0;bottom=0;right=0;points=[[0,0.5],[1,0.5]];portConstraint=eastwest;" vertex="1" parent="0AfhaiGvRMVgeVekRw-L-161">
          <mxGeometry width="280" height="80" as="geometry" />
        </mxCell>
        <mxCell id="0AfhaiGvRMVgeVekRw-L-163" value="&lt;u&gt;following_Uname&lt;/u&gt;" style="shape=partialRectangle;html=1;whiteSpace=wrap;connectable=0;overflow=hidden;fillColor=none;top=0;left=0;bottom=0;right=0;" vertex="1" parent="0AfhaiGvRMVgeVekRw-L-162">
          <mxGeometry width="140" height="80" as="geometry" />
        </mxCell>
        <mxCell id="0AfhaiGvRMVgeVekRw-L-164" value="&lt;u&gt;follower_Uname&lt;/u&gt;" style="shape=partialRectangle;html=1;whiteSpace=wrap;connectable=0;overflow=hidden;fillColor=none;top=0;left=0;bottom=0;right=0;" vertex="1" parent="0AfhaiGvRMVgeVekRw-L-162">
          <mxGeometry x="140" width="140" height="80" as="geometry" />
        </mxCell>
        <mxCell id="0AfhaiGvRMVgeVekRw-L-165" style="edgeStyle=orthogonalEdgeStyle;rounded=0;orthogonalLoop=1;jettySize=auto;html=1;exitX=0;exitY=0.5;exitDx=0;exitDy=0;entryX=0.5;entryY=1.034;entryDx=0;entryDy=0;entryPerimeter=0;" edge="1" parent="1" source="0AfhaiGvRMVgeVekRw-L-162" target="0AfhaiGvRMVgeVekRw-L-154">
          <mxGeometry relative="1" as="geometry">
            <mxPoint x="950" y="1370" as="targetPoint" />
            <Array as="points">
              <mxPoint x="690" y="1510" />
              <mxPoint x="690" y="1420" />
              <mxPoint x="950" y="1420" />
            </Array>
          </mxGeometry>
        </mxCell>
        <mxCell id="0AfhaiGvRMVgeVekRw-L-166" style="edgeStyle=orthogonalEdgeStyle;rounded=0;orthogonalLoop=1;jettySize=auto;html=1;exitX=1;exitY=0.5;exitDx=0;exitDy=0;entryX=0.562;entryY=1.01;entryDx=0;entryDy=0;entryPerimeter=0;" edge="1" parent="1" source="0AfhaiGvRMVgeVekRw-L-162" target="0AfhaiGvRMVgeVekRw-L-154">
          <mxGeometry relative="1" as="geometry">
            <mxPoint x="980" y="1360" as="targetPoint" />
            <Array as="points">
              <mxPoint x="1020" y="1510" />
              <mxPoint x="1020" y="1420" />
              <mxPoint x="980" y="1420" />
            </Array>
          </mxGeometry>
        </mxCell>
        <mxCell id="0AfhaiGvRMVgeVekRw-L-167" value="FOLLOW" style="text;strokeColor=none;fillColor=none;html=1;fontSize=24;fontStyle=1;verticalAlign=middle;align=center;" vertex="1" parent="1">
          <mxGeometry x="710" y="1450" width="100" height="40" as="geometry" />
        </mxCell>
      </root>
    </mxGraphModel>
  </diagram>
</mxfile>
